<svg width="618" height="441" viewBox="0 0 618 441" fill="none" xmlns="http://www.w3.org/2000/svg">
<path d="M0.5 374.452L24.5 395H58L343.031 297.45L66.03 433.932L221.683 374.452L95.6502 440.963H151.625L359.838 301.084L343.833 264.402L31 282.072L14.9072 322L297.391 282.072L14.9072 340.5L0.5 374.452Z" fill="url(#paint0_linear)"/>
<path d="M348.628 268.952C348.628 268.952 309.305 267.112 291.51 272.327C273.715 277.543 203.284 332.073 203.284 332.073C203.284 332.073 308.933 329.214 320.645 322.99C332.358 316.765 358.455 291.485 358.455 291.485L348.628 268.952Z" fill="url(#paint1_linear)"/>
<path d="M351.245 274.136C351.245 274.136 330.543 273.169 321.176 275.914C311.808 278.658 274.727 307.365 274.727 307.365C274.727 307.365 330.347 305.858 336.513 302.583C342.68 299.307 356.42 285.997 356.42 285.997L351.245 274.136Z" fill="url(#paint2_linear)"/>
<path d="M388.825 231.703L354.174 227.794L308.911 254.57C308.911 254.57 311.305 258.352 314.48 258.824C317.655 259.296 349.007 250.841 349.007 250.841L354.751 259.644C354.751 259.644 390.588 249.591 388.825 231.703Z" fill="url(#paint3_linear)"/>
<path d="M414.408 290.344L393.707 318.405L343.293 333.373C343.293 333.373 342.147 329.043 343.962 326.397C345.778 323.75 373.297 306.518 373.297 306.518L370.752 296.322C370.752 296.322 402.495 276.884 414.408 290.344Z" fill="url(#paint4_linear)"/>
<path d="M529.782 166.736L543.238 241.472C541.004 242.932 538.712 244.358 536.377 245.782C534.306 247.032 532.192 248.276 530.019 249.508C527.584 250.892 525.089 252.25 522.532 253.587C517.277 256.329 511.803 258.982 506.054 261.479C431.395 294.063 370.758 296.322 370.758 296.322L354.739 259.639C354.739 259.639 397.635 216.705 472.311 184.143C478.041 181.624 483.701 179.414 489.304 177.431C492.015 176.457 494.714 175.567 497.385 174.715C499.759 173.965 502.107 173.254 504.445 172.604C512.786 170.219 521.242 168.261 529.782 166.736V166.736Z" fill="#FFF4C5"/>
<path d="M617.27 166.929V166.951C616.927 167.603 595.278 206.685 546.176 239.532L532.966 166.188C582.118 158.018 617.27 166.929 617.27 166.929Z" fill="#FFF4C5"/>
<path d="M617.273 166.93C617.273 166.93 592.871 211.587 536.384 245.782L504.452 172.596C567.94 154.445 617.273 166.93 617.273 166.93Z" fill="url(#paint5_linear)"/>
<path d="M497.404 174.722L530.033 249.507C527.594 250.898 525.093 252.261 522.529 253.595L489.306 177.435C492.032 176.469 494.725 175.561 497.404 174.722Z" fill="url(#paint6_linear)"/>
<path d="M354.755 259.638L343.833 264.402L359.842 301.101L370.763 296.337L354.755 259.638Z" fill="url(#paint7_linear)"/>
<path d="M325.245 290.837L326.53 293.784L327.816 296.732L403.738 268.464C404.508 267.177 404.96 265.725 405.056 264.228C405.151 262.731 404.888 261.232 404.289 259.858C403.689 258.483 402.769 257.271 401.607 256.323C400.444 255.375 399.072 254.719 397.604 254.408V254.408L325.245 290.837Z" fill="url(#paint8_linear)"/>
<g style="mix-blend-mode:multiply">
<path d="M617.262 166.946C616.891 167.629 592.42 211.855 536.38 245.781C534.315 247.038 532.184 248.281 530.03 249.503C527.592 250.892 525.09 252.255 522.526 253.592C517.28 256.34 511.79 258.973 506.056 261.49C431.397 294.065 370.747 296.32 370.747 296.32L366.321 286.176C388.315 281.614 447.688 272.788 501.686 249.232C543.77 230.861 616.126 167.917 617.262 166.946Z" fill="#F6D79F"/>
</g>
<g style="mix-blend-mode:screen" opacity="0.3">
<path d="M617.251 166.921C616.499 166.729 567.433 154.587 504.448 172.594C502.122 173.252 499.761 173.969 497.4 174.718C494.721 175.56 492.028 176.467 489.302 177.434C483.722 179.41 478.058 181.644 472.309 184.135C397.651 216.71 354.747 259.638 354.747 259.638L359.171 269.781C377.476 256.76 424.328 219.239 478.326 195.678C520.41 177.32 615.766 167.093 617.251 166.921Z" fill="#FDFCEA"/>
</g>
<path d="M397.893 227.467C397.893 227.467 393.507 238.464 393.571 239.734C393.634 241.004 394.725 244.124 395.705 244.73C396.685 245.336 402.615 241.833 403.12 240.933C403.625 240.032 405.334 227.347 405.334 227.347L397.893 227.467Z" fill="#532C00"/>
<path d="M460.114 199.748L469.003 196.593C469.716 198.083 470.68 199.438 471.853 200.599C474.386 201.826 477.007 202.859 479.695 203.689C480.617 204.038 480.488 205.277 480.488 205.277L459.65 206.56C459.616 204.28 459.771 202.002 460.114 199.748V199.748Z" fill="#532C00"/>
<path d="M407.067 136.652L396.703 228.346C396.703 228.346 402.492 230.005 406.123 228.273C406.123 228.273 426.76 162.711 428.524 155.846C428.524 155.846 457.336 159.529 462.16 158.454C462.16 158.454 459.65 198.428 459.584 200.016C459.584 200.016 466.778 198.262 469.708 197.851C469.708 197.851 476.117 147.422 475.444 146.061C474.772 144.701 450.036 140.517 450.036 140.517L407.067 136.652Z" fill="url(#paint9_linear)"/>
<path d="M378.287 134.604L373.272 133.091C371.954 132.693 370.533 132.835 369.32 133.484C368.107 134.133 367.201 135.238 366.801 136.554L365.863 139.665L367.932 140.29L368.872 137.179C369.105 136.411 369.634 135.767 370.341 135.388C371.049 135.009 371.878 134.927 372.647 135.159L377.662 136.672C378.43 136.906 379.075 137.435 379.453 138.143C379.832 138.851 379.915 139.68 379.682 140.449L378.744 143.559L380.814 144.184L381.753 141.074C382.15 139.756 382.008 138.335 381.358 137.122C380.708 135.909 379.603 135.004 378.287 134.604V134.604Z" fill="#361900"/>
<path d="M365.236 137.6L364.716 139.325L369.077 140.642L369.598 138.917L365.236 137.6Z" fill="#FFF4C5"/>
<path d="M380.408 138.043C380.209 138.23 379.987 138.391 379.747 138.522C379.434 138.695 379.092 138.809 378.737 138.856C377.926 140.115 376.96 141.267 375.862 142.285C375.157 142.56 372.399 140.457 371.852 139.956C370.491 138.645 369.34 137.132 368.439 135.471C368.006 134.162 373.154 126.474 373.154 126.474L381.724 130.332C381.724 130.332 381.192 137.305 380.408 138.043Z" fill="#FFC5C5"/>
<path d="M379.754 138.522C379.441 138.695 379.099 138.809 378.744 138.857C378.778 138.244 378.743 137.63 378.64 137.025C378.412 136.585 378.223 136.127 378.074 135.654C378.074 135.654 379.252 133.837 379.418 133.923C379.584 134.008 379.738 135.06 379.738 135.06L379.316 136.462C379.535 137.131 379.682 137.822 379.754 138.522Z" fill="#FF8A8C"/>
<path d="M347.135 136.879L337.59 168.497C337.153 169.946 337.972 171.474 339.421 171.911L385.003 185.673C386.451 186.11 387.98 185.29 388.417 183.842L397.962 152.224C398.399 150.776 397.58 149.247 396.132 148.81L350.549 135.049C349.101 134.612 347.573 135.431 347.135 136.879Z" fill="#774206"/>
<path d="M390.242 177.797L388.416 183.84C388.206 184.535 387.728 185.118 387.088 185.462C386.448 185.805 385.697 185.88 385.002 185.671L339.423 171.909C338.728 171.699 338.145 171.221 337.801 170.581C337.458 169.941 337.383 169.191 337.592 168.495L339.418 162.451L390.242 177.797Z" fill="#532C00"/>
<path d="M371.14 169.872L359.708 166.421L358.191 171.447L369.623 174.899L371.14 169.872Z" fill="#FFF4C5"/>
<path d="M358.186 137.354L354.638 136.283L343.509 173.145L347.057 174.216L358.186 137.354Z" fill="#361900"/>
<path d="M392.041 147.574L388.494 146.503L377.366 183.352L380.913 184.423L392.041 147.574Z" fill="#361900"/>
<path d="M380.957 136.482C380.604 136.006 380.173 135.593 379.681 135.263C379.374 135.054 379.044 134.881 378.698 134.746C378.379 135.192 378.081 135.654 378.081 135.654C378.229 136.126 378.419 136.585 378.646 137.025C378.683 137.087 378.703 137.158 378.707 137.23C379.138 137.584 379.463 138.05 379.646 138.576C379.86 139.181 379.875 139.838 379.688 140.452L378.749 143.564L380.818 144.188L381.758 141.077C381.993 140.302 382.042 139.482 381.903 138.684C381.764 137.886 381.44 137.132 380.957 136.482V136.482Z" fill="#361900"/>
<path d="M378.125 141.492L377.604 143.216L381.966 144.533L382.486 142.809L378.125 141.492Z" fill="#FFF4C5"/>
<path d="M512.109 67.7872L515.429 76.013L510.378 79.3582L506.025 74.7157L509.582 67.5981L512.109 67.7872Z" fill="#FCB0B1"/>
<path d="M500.035 1.63323C497.86 4.23808 493.805 5.21363 490.412 5.28867C487.012 5.21554 483.649 4.56455 480.467 3.36354C477.291 2.16312 474.018 1.23709 470.684 0.595622C464.215 -0.362615 457.607 1.38501 451.66 4.10531C457.148 6.48281 462.446 9.27719 467.507 12.4639C462.44 16.273 457.793 20.6094 453.643 25.4001C459.52 23.7131 465.455 25.8056 471.311 27.5648C477.167 29.3239 482.825 31.7874 488.824 32.9751C494.824 34.1628 501.417 33.9362 506.563 30.6358L500.035 1.63323Z" fill="url(#paint10_linear)"/>
<path d="M503.218 1.05753L532.963 166.183C531.905 166.353 530.844 166.545 529.788 166.737L500.035 1.63334L503.218 1.05753Z" fill="white"/>
<path d="M505.176 72.6608L508.604 65.8434L518.804 65.6284C518.895 65.8331 518.943 66.0546 518.944 66.2789C518.946 66.5031 518.9 66.7251 518.81 66.9306C518.72 67.1362 518.589 67.3207 518.424 67.4725C518.259 67.6242 518.064 67.7398 517.851 67.8119C516.194 68.3846 514.483 68.7888 512.744 69.0183C512.744 69.0183 509.819 76.4418 506.895 75.7577C506.542 75.7375 506.2 75.6283 505.901 75.4403C505.601 75.2523 505.354 74.9916 505.183 74.6826C505.011 74.3735 504.921 74.026 504.92 73.6725C504.919 73.319 505.007 72.971 505.176 72.6608V72.6608Z" fill="#FFC5C5"/>
<path d="M517.613 68.8428C517.613 68.8428 518.875 70.3956 518.544 71.5082C518.214 72.6209 512.388 73.3843 512.388 73.3843L511.78 72.0379C511.78 72.0379 515.961 68.153 517.613 68.8428Z" fill="#FFC5C5"/>
<path d="M517.097 66.3026C517.097 66.3026 518.357 67.8554 518.028 68.9666C517.699 70.0778 511.87 70.8426 511.87 70.8426L511.262 69.4962C511.262 69.4962 515.444 65.6113 517.097 66.3026Z" fill="#FFC5C5"/>
<path d="M517.811 71.6269C517.811 71.6269 518.932 73.0094 518.639 73.998C518.346 74.9865 513.155 75.6705 513.155 75.6705L512.616 74.4713C512.616 74.4713 516.34 71.0121 517.811 71.6269Z" fill="#FFC5C5"/>
<path d="M517.668 74.5214C517.668 74.5214 518.419 75.8389 518.035 76.6283C517.651 77.4177 513.2 77.2705 513.2 77.2705L512.912 76.1882C512.912 76.1882 516.519 73.8013 517.668 74.5214Z" fill="#FFC5C5"/>
<path d="M440.97 85.3103C440.97 85.3103 442.464 86.1141 444.842 87.3076C451.801 90.8028 466.345 97.6533 473.197 97.5278C482.393 97.3575 512.36 81.2955 512.36 81.2955L510.848 78.2418L505.546 67.518C505.546 67.518 478.503 83.909 474.787 82.2537C471.071 80.5985 444.215 67.2106 444.215 67.2106L440.97 85.3103Z" fill="white"/>
<path d="M443.789 84.0613L444.842 87.3069C451.801 90.8022 466.345 97.6527 473.197 97.5271C482.392 97.3568 512.36 81.2949 512.36 81.2949L510.848 78.2412C506.252 80.784 480.918 94.5889 473.712 94.485C465.781 94.3696 443.789 84.0613 443.789 84.0613Z" fill="#F0EAD2"/>
<path d="M370.187 126.081L380.811 131.499L383.326 132.782L398.144 102.476L419.599 87.5787L419.693 84.31L420.153 68.1181C420.153 68.1181 390.281 85.5208 386.096 93.8245L370.187 126.081Z" fill="white"/>
<path d="M380.811 131.499L383.326 132.782L398.144 102.476L419.599 87.5787L419.693 84.31C416.872 86.1861 395.737 100.307 395.282 101.656C394.904 102.789 385.003 122.98 380.811 131.499Z" fill="#F0EAD2"/>
<path d="M450.036 140.521L433.831 140.025L432.658 139.984L429.863 139.892L428.369 139.841L405.741 139.136L410.425 81.9647C410.425 81.9647 411.251 69.3979 426.32 65.8017C426.451 65.78 426.587 65.7382 426.744 65.6992C427.144 65.6141 427.544 65.5289 427.962 65.4683C428.737 65.3153 429.526 65.2085 430.359 65.1075L435.352 65.2778L439.682 65.4221C440.874 65.6233 442.027 66.013 443.098 66.5766C443.476 66.7596 443.844 66.9629 444.2 67.1856L444.217 67.2102C444.587 67.4425 444.953 67.695 445.337 67.9721C448.772 70.5928 452.45 75.8054 452.455 86.1685C452.429 105.441 450.036 140.521 450.036 140.521Z" fill="white"/>
<path d="M429.671 94.4023C429.624 94.6881 429.493 94.9536 429.296 95.1653C429.098 95.3769 428.842 95.5252 428.56 95.5914C428.278 95.6576 427.983 95.6388 427.711 95.5373C427.44 95.4357 427.205 95.2561 427.036 95.021C426.867 94.7859 426.771 94.506 426.761 94.2165C426.751 93.9271 426.827 93.6411 426.979 93.3948C427.132 93.1486 427.354 92.9529 427.617 92.8328C427.881 92.7126 428.174 92.6732 428.46 92.7196C428.65 92.7503 428.832 92.8182 428.996 92.9194C429.16 93.0207 429.302 93.1533 429.414 93.3096C429.527 93.4659 429.607 93.6429 429.651 93.8304C429.695 94.0179 429.702 94.2123 429.671 94.4023V94.4023Z" fill="#F0EAD2"/>
<path d="M428.968 106.373C428.921 106.659 428.791 106.925 428.593 107.137C428.395 107.35 428.139 107.498 427.856 107.565C427.574 107.631 427.278 107.612 427.007 107.511C426.735 107.409 426.5 107.229 426.33 106.994C426.161 106.758 426.065 106.478 426.055 106.188C426.045 105.898 426.121 105.612 426.274 105.365C426.427 105.119 426.649 104.923 426.913 104.803C427.177 104.683 427.471 104.644 427.757 104.69C428.14 104.753 428.484 104.966 428.711 105.281C428.938 105.597 429.03 105.989 428.968 106.373V106.373Z" fill="#F0EAD2"/>
<path d="M428.284 119.672C428.237 119.958 428.106 120.223 427.909 120.435C427.711 120.646 427.455 120.795 427.173 120.861C426.891 120.927 426.596 120.908 426.325 120.807C426.053 120.705 425.818 120.526 425.649 120.29C425.48 120.055 425.384 119.775 425.374 119.486C425.364 119.197 425.44 118.911 425.592 118.664C425.745 118.418 425.967 118.222 426.23 118.102C426.494 117.982 426.787 117.943 427.073 117.989C427.456 118.052 427.799 118.264 428.027 118.58C428.254 118.895 428.346 119.288 428.284 119.672V119.672Z" fill="#F0EAD2"/>
<path d="M437.98 87.3294L449.042 88.1188C449.042 88.1188 448.57 98.1442 448.31 98.6377C448.05 99.1313 443.467 100.977 442.141 100.582C440.478 99.7726 438.902 98.7968 437.436 97.6694L437.98 87.3294Z" fill="#F0EAD2"/>
<path d="M427.566 58.3664L430.363 67.9978L440.969 66.699L439.143 60.7172L427.566 58.3664Z" fill="#FCB0B1"/>
<path d="M439.325 40.32L443.962 60.8471L431.212 62.3782L426.568 58.1297L422.96 44.9972L439.325 40.32Z" fill="#FFC5C5"/>
<path d="M423.738 55.5901C423.738 55.5901 422.628 51.6273 424.866 51.0544C427.105 50.4815 428.458 52.8915 428.458 52.8915L425.966 45.9645C425.966 45.9645 441.999 46.611 441.552 38.6276C441.104 30.6442 435.709 31.1493 433.447 31.8521C432.916 32.0507 432.434 32.3607 432.032 32.7611C431.631 33.1616 431.32 33.6434 431.12 34.174C430.92 34.7047 430.836 35.2719 430.873 35.8377C430.911 36.4035 431.069 36.9547 431.337 37.4543C431.337 37.4543 420.859 37.5121 419.909 40.3175C419.649 41.2002 419.577 42.1278 419.698 43.0401C419.818 43.9524 420.129 44.8293 420.611 45.6138C420.611 45.6138 418.436 45.9587 418.394 49.1408C418.352 52.3229 422.259 54.883 423.738 55.5901Z" fill="#532C00"/>
<path d="M430.052 54.4122C430.052 54.4122 425.83 47.3813 423.048 51.6284C421.101 54.5998 426.571 58.1297 426.571 58.1297L430.052 54.4122Z" fill="#FFC5C5"/>
<path d="M444.862 52.113L440.875 53.2127L440.246 46.049L444.862 52.113Z" fill="#FFC5C5"/>
<path d="M429.863 139.889L428.369 139.839L434.691 67.1054L435.577 66.7994L429.863 139.889Z" fill="#F0EAD2"/>
<path d="M426.732 65.7101L431.262 73.4683L435.088 67.0897L438.425 73.9388L444.213 67.2109L444.193 67.1979L443.098 66.5832C442.025 66.0179 440.869 65.6282 439.673 65.4287L435.344 65.2843L430.356 65.1126C429.525 65.2079 428.728 65.3262 427.966 65.4619C427.545 65.5398 427.134 65.622 426.732 65.7101Z" fill="#F0EAD2"/>
<path d="M439.678 65.4301L435.348 65.2858L438.315 72.5115L443.103 66.5846C442.031 66.019 440.874 65.6292 439.678 65.4301V65.4301Z" fill="white"/>
<path d="M427.966 65.4591L431.223 72.1739L435.345 65.2816L430.358 65.1098C429.526 65.2051 428.73 65.3234 427.966 65.4591Z" fill="white"/>
<path d="M435.345 65.2825L433.231 68.8182L434.351 70.4345C432.44 75.3176 428.888 79.3825 424.305 81.9304C420.752 83.844 416.753 84.7575 413.049 86.3522C409.344 87.9468 405.721 90.4882 404.367 94.2894L405.954 100.351L413.221 98.1079C414.498 94.6444 417.68 92.2647 420.869 90.4146C424.058 88.5645 427.519 86.9698 430.024 84.2568C433.387 80.6157 434.778 75.4537 435.817 70.6062L436.879 69.0058L435.345 65.2825Z" fill="url(#paint11_linear)"/>
<defs>
<linearGradient id="paint0_linear" x1="52.4091" y1="346.68" x2="133.337" y2="56.3508" gradientUnits="userSpaceOnUse">
<stop stop-color="#FFF197" stop-opacity="0"/>
<stop offset="1" stop-color="#FFA600"/>
</linearGradient>
<linearGradient id="paint1_linear" x1="120.889" y1="224.295" x2="184.225" y2="128.001" gradientUnits="userSpaceOnUse">
<stop stop-color="#FFF197"/>
<stop offset="1" stop-color="#FFA600"/>
</linearGradient>
<linearGradient id="paint2_linear" x1="199.978" y1="204.076" x2="230.458" y2="156.074" gradientUnits="userSpaceOnUse">
<stop stop-color="#FFF197"/>
<stop offset="1" stop-color="#FFA600"/>
</linearGradient>
<linearGradient id="paint3_linear" x1="-16.1118" y1="-265.273" x2="66.2636" y2="-265.273" gradientUnits="userSpaceOnUse">
<stop stop-color="#DB4B00"/>
<stop offset="1" stop-color="#A23B01"/>
</linearGradient>
<linearGradient id="paint4_linear" x1="-16.1426" y1="-196.509" x2="66.2653" y2="-196.509" gradientUnits="userSpaceOnUse">
<stop stop-color="#DB4B00"/>
<stop offset="1" stop-color="#A23B01"/>
</linearGradient>
<linearGradient id="paint5_linear" x1="195.887" y1="-230.86" x2="301.6" y2="-230.86" gradientUnits="userSpaceOnUse">
<stop stop-color="#DB4B00"/>
<stop offset="1" stop-color="#A23B01"/>
</linearGradient>
<linearGradient id="paint6_linear" x1="645.004" y1="339.882" x2="696.767" y2="339.882" gradientUnits="userSpaceOnUse">
<stop stop-color="#547A95"/>
<stop offset="1" stop-color="#29506E"/>
</linearGradient>
<linearGradient id="paint7_linear" x1="-150.888" y1="-55.9502" x2="-165.381" y2="-49.6283" gradientUnits="userSpaceOnUse">
<stop stop-color="#547A95"/>
<stop offset="1" stop-color="#29506E"/>
</linearGradient>
<linearGradient id="paint8_linear" x1="-15.6304" y1="-230.837" x2="69.2291" y2="-230.837" gradientUnits="userSpaceOnUse">
<stop stop-color="#DB4B00"/>
<stop offset="1" stop-color="#A23B01"/>
</linearGradient>
<linearGradient id="paint9_linear" x1="596.28" y1="341.71" x2="582.317" y2="266.159" gradientUnits="userSpaceOnUse">
<stop stop-color="#547A95"/>
<stop offset="1" stop-color="#29506E"/>
</linearGradient>
<linearGradient id="paint10_linear" x1="579.97" y1="148.052" x2="638.387" y2="148.052" gradientUnits="userSpaceOnUse">
<stop stop-color="#DB4B00"/>
<stop offset="1" stop-color="#A23B01"/>
</linearGradient>
<linearGradient id="paint11_linear" x1="578.242" y1="198.576" x2="545.824" y2="247.014" gradientUnits="userSpaceOnUse">
<stop stop-color="#A23B01"/>
<stop offset="1" stop-color="#DB4B00"/>
</linearGradient>
</defs>
</svg>
