<svg width="600" height="480" viewBox="0 0 600 480" fill="none" xmlns="http://www.w3.org/2000/svg">
<path d="M0 407.547L23.3473 429.93H55.9363L333.216 323.665L63.748 472.341L215.168 407.547L92.5626 480H147.015L349.566 327.623L333.997 287.665L29.6706 306.913L14.0154 350.408L288.817 306.913L14.0154 370.561L0 407.547Z" fill="url(#paint0_linear)"/>
<path d="M338.66 292.62C338.66 292.62 300.407 290.616 283.096 296.298C265.785 301.979 197.27 361.381 197.27 361.381C197.27 361.381 300.045 358.267 311.439 351.486C322.833 344.706 348.221 317.167 348.221 317.167L338.66 292.62Z" fill="url(#paint1_linear)"/>
<path d="M341.206 298.268C341.206 298.268 321.067 297.214 311.955 300.204C302.842 303.194 266.769 334.466 266.769 334.466C266.769 334.466 320.876 332.825 326.875 329.256C332.874 325.687 346.24 311.188 346.24 311.188L341.206 298.268Z" fill="url(#paint2_linear)"/>
<path d="M377.764 252.044L344.056 247.786L300.024 276.954C300.024 276.954 302.353 281.074 305.442 281.588C308.531 282.102 339.03 272.891 339.03 272.891L344.617 282.481C344.617 282.481 379.48 271.53 377.764 252.044Z" fill="url(#paint3_linear)"/>
<path d="M402.653 315.924L382.514 346.492L333.471 362.797C333.471 362.797 332.356 358.081 334.122 355.198C335.888 352.314 362.659 333.543 362.659 333.543L360.184 322.436C360.184 322.436 391.063 301.262 402.653 315.924Z" fill="url(#paint4_linear)"/>
<path d="M514.888 181.273L527.978 262.685C525.805 264.276 523.575 265.829 521.304 267.381C519.289 268.742 517.233 270.097 515.118 271.44C512.75 272.948 510.323 274.427 507.835 275.883C502.724 278.87 497.399 281.761 491.806 284.48C419.177 319.976 360.189 322.436 360.189 322.436L344.606 282.476C344.606 282.476 386.335 235.706 458.98 200.235C464.555 197.49 470.061 195.084 475.511 192.923C478.149 191.862 480.774 190.892 483.372 189.965C485.682 189.147 487.966 188.372 490.24 187.665C498.354 185.067 506.581 182.934 514.888 181.273V181.273Z" fill="#FFF4C5"/>
<path d="M599.997 181.483V181.507C599.663 182.217 578.604 224.79 530.836 260.572L517.985 180.675C565.802 171.776 599.997 181.483 599.997 181.483Z" fill="#FFF4C5"/>
<path d="M600 181.483C600 181.483 576.262 230.13 521.311 267.38L490.248 187.655C552.009 167.883 600 181.483 600 181.483Z" fill="url(#paint5_linear)"/>
<path d="M483.391 189.972L515.133 271.438C512.76 272.954 510.327 274.438 507.833 275.892L475.514 192.928C478.166 191.875 480.785 190.886 483.391 189.972Z" fill="url(#paint6_linear)"/>
<path d="M344.621 282.475L333.997 287.665L349.57 327.643L360.194 322.453L344.621 282.475Z" fill="url(#paint7_linear)"/>
<path d="M315.913 316.461L317.164 319.671L318.415 322.883L392.272 292.089C393.021 290.687 393.46 289.105 393.554 287.474C393.647 285.844 393.391 284.212 392.807 282.714C392.224 281.216 391.329 279.896 390.198 278.864C389.067 277.831 387.733 277.116 386.305 276.777V276.777L315.913 316.461Z" fill="url(#paint8_linear)"/>
<g style="mix-blend-mode:multiply">
<path d="M599.989 181.502C599.628 182.245 575.823 230.422 521.307 267.38C519.298 268.749 517.225 270.103 515.13 271.434C512.758 272.948 510.324 274.432 507.83 275.888C502.726 278.882 497.386 281.75 491.807 284.492C419.179 319.978 360.178 322.434 360.178 322.434L355.872 311.384C377.269 306.414 435.027 296.799 487.556 271.139C528.496 251.126 598.884 182.56 599.989 181.502Z" fill="#F6D79F"/>
</g>
<g style="mix-blend-mode:screen" opacity="0.3">
<path d="M599.98 181.474C599.248 181.265 551.516 168.038 490.244 187.654C487.981 188.371 485.684 189.152 483.387 189.968C480.782 190.884 478.162 191.873 475.51 192.926C470.082 195.079 464.572 197.512 458.979 200.225C386.351 235.712 344.614 282.474 344.614 282.474L348.918 293.524C366.725 279.339 412.303 238.466 464.832 212.8C505.772 192.802 598.535 181.661 599.98 181.474Z" fill="#FDFCEA"/>
</g>
<path d="M386.587 247.43C386.587 247.43 382.32 259.409 382.382 260.792C382.444 262.175 383.505 265.574 384.458 266.235C385.412 266.895 391.18 263.079 391.671 262.098C392.163 261.117 393.825 247.299 393.825 247.299L386.587 247.43Z" fill="#532C00"/>
<path d="M447.115 217.234L455.763 213.797C456.456 215.42 457.394 216.896 458.535 218.161C460.999 219.497 463.549 220.622 466.164 221.527C467.061 221.908 466.935 223.257 466.935 223.257L446.664 224.654C446.631 222.171 446.781 219.689 447.115 217.234V217.234Z" fill="#532C00"/>
<path d="M395.511 148.501L385.428 248.387C385.428 248.387 391.061 250.194 394.593 248.308C394.593 248.308 414.669 176.888 416.384 169.409C416.384 169.409 444.413 173.421 449.106 172.25C449.106 172.25 446.664 215.796 446.6 217.525C446.6 217.525 453.598 215.615 456.448 215.167C456.448 215.167 462.683 160.233 462.029 158.751C461.374 157.268 437.312 152.711 437.312 152.711L395.511 148.501Z" fill="url(#paint9_linear)"/>
<path d="M367.513 146.27L362.635 144.621C361.353 144.188 359.971 144.343 358.79 145.05C357.61 145.757 356.729 146.96 356.34 148.394L355.427 151.783L357.44 152.464L358.354 149.075C358.581 148.238 359.096 147.536 359.784 147.124C360.473 146.711 361.279 146.621 362.027 146.874L366.905 148.523C367.653 148.777 368.28 149.353 368.648 150.125C369.017 150.896 369.097 151.8 368.871 152.637L367.958 156.025L369.971 156.706L370.885 153.318C371.271 151.883 371.133 150.334 370.501 149.013C369.869 147.692 368.794 146.705 367.513 146.27V146.27Z" fill="#361900"/>
<path d="M354.818 149.534L354.311 151.412L358.554 152.847L359.061 150.969L354.818 149.534Z" fill="#FFF4C5"/>
<path d="M369.577 150.016C369.383 150.219 369.167 150.395 368.934 150.537C368.629 150.727 368.296 150.85 367.951 150.902C367.161 152.273 366.222 153.528 365.154 154.637C364.468 154.936 361.785 152.646 361.253 152.1C359.929 150.672 358.809 149.024 357.933 147.214C357.512 145.788 362.519 137.414 362.519 137.414L370.857 141.616C370.857 141.616 370.339 149.212 369.577 150.016Z" fill="#FFC5C5"/>
<path d="M368.941 150.538C368.636 150.727 368.303 150.85 367.958 150.902C367.991 150.235 367.957 149.566 367.857 148.907C367.635 148.428 367.451 147.929 367.307 147.414C367.307 147.414 368.452 145.435 368.614 145.527C368.775 145.62 368.925 146.766 368.925 146.766L368.514 148.294C368.728 149.023 368.871 149.775 368.941 150.538Z" fill="#FF8A8C"/>
<path d="M337.209 148.749L327.923 183.191C327.498 184.769 328.295 186.434 329.704 186.91L374.047 201.901C375.456 202.377 376.943 201.484 377.368 199.907L386.654 165.464C387.079 163.887 386.282 162.222 384.873 161.745L340.53 146.754C339.121 146.278 337.634 147.171 337.209 148.749Z" fill="#774206"/>
<path d="M379.143 193.322L377.367 199.904C377.163 200.662 376.698 201.297 376.075 201.671C375.452 202.045 374.722 202.127 374.046 201.899L329.707 186.908C329.031 186.679 328.463 186.158 328.129 185.461C327.795 184.764 327.722 183.946 327.925 183.189L329.701 176.605L379.143 193.322Z" fill="#532C00"/>
<path d="M360.561 184.689L349.439 180.93L347.963 186.405L359.085 190.164L360.561 184.689Z" fill="#FFF4C5"/>
<path d="M347.959 149.265L344.508 148.098L333.681 188.254L337.133 189.421L347.959 149.265Z" fill="#361900"/>
<path d="M380.894 160.398L377.443 159.231L366.618 199.373L370.068 200.54L380.894 160.398Z" fill="#361900"/>
<path d="M370.111 148.316C369.768 147.797 369.348 147.347 368.87 146.987C368.571 146.76 368.25 146.572 367.914 146.425C367.603 146.91 367.313 147.413 367.313 147.413C367.457 147.928 367.641 148.428 367.863 148.907C367.898 148.975 367.919 149.052 367.922 149.13C368.341 149.516 368.657 150.023 368.836 150.597C369.044 151.256 369.058 151.972 368.877 152.641L367.963 156.03L369.976 156.711L370.89 153.321C371.118 152.477 371.167 151.584 371.032 150.715C370.896 149.846 370.581 149.024 370.111 148.316V148.316Z" fill="#361900"/>
<path d="M367.355 153.773L366.849 155.651L371.092 157.086L371.598 155.208L367.355 153.773Z" fill="#FFF4C5"/>
<path d="M497.696 73.4834L500.925 82.4441L496.012 86.0882L491.778 81.0308L495.238 73.2774L497.696 73.4834Z" fill="#FCB0B1"/>
<path d="M485.95 1.41905C483.835 4.25662 479.89 5.31933 476.589 5.40107C473.282 5.32141 470.01 4.61226 466.915 3.30395C463.826 1.99628 460.642 0.98752 457.398 0.288736C451.105 -0.755112 444.676 1.14865 438.891 4.11198C444.23 6.7019 449.383 9.74594 454.307 13.2174C449.378 17.3668 444.857 22.0906 440.82 27.3093C446.538 25.4716 452.311 27.751 458.008 29.6674C463.704 31.5837 469.209 34.2672 475.045 35.5611C480.881 36.8549 487.295 36.608 492.302 33.0127L485.95 1.41905Z" fill="url(#paint10_linear)"/>
<path d="M489.047 0.791901L517.983 180.67C516.954 180.856 515.922 181.065 514.894 181.274L485.95 1.41916L489.047 0.791901Z" fill="white"/>
<path d="M490.952 78.7924L494.286 71.366L504.209 71.1317C504.298 71.3547 504.345 71.596 504.346 71.8403C504.347 72.0845 504.302 72.3264 504.215 72.5503C504.128 72.7742 504 72.9752 503.839 73.1405C503.679 73.3058 503.489 73.4318 503.282 73.5102C501.67 74.1341 500.005 74.5744 498.314 74.8245C498.314 74.8245 495.468 82.9112 492.624 82.166C492.281 82.144 491.948 82.025 491.657 81.8202C491.366 81.6155 491.125 81.3315 490.958 80.9948C490.792 80.6581 490.704 80.2796 490.702 79.8945C490.701 79.5094 490.787 79.1303 490.952 78.7924V78.7924Z" fill="#FFC5C5"/>
<path d="M503.051 74.6333C503.051 74.6333 504.278 76.3248 503.956 77.5369C503.635 78.749 497.967 79.5806 497.967 79.5806L497.376 78.1138C497.376 78.1138 501.443 73.8819 503.051 74.6333Z" fill="#FFC5C5"/>
<path d="M502.548 71.8661C502.548 71.8661 503.774 73.5577 503.454 74.7681C503.134 75.9786 497.464 76.8118 497.464 76.8118L496.873 75.3451C496.873 75.3451 500.941 71.1131 502.548 71.8661Z" fill="#FFC5C5"/>
<path d="M503.243 77.6661C503.243 77.6661 504.334 79.1722 504.049 80.249C503.764 81.3259 498.714 82.0711 498.714 82.0711L498.189 80.7647C498.189 80.7647 501.813 76.9964 503.243 77.6661Z" fill="#FFC5C5"/>
<path d="M503.104 80.8192C503.104 80.8192 503.834 82.2545 503.461 83.1144C503.087 83.9743 498.758 83.814 498.758 83.814L498.477 82.6349C498.477 82.6349 501.986 80.0348 503.104 80.8192Z" fill="#FFC5C5"/>
<path d="M428.492 92.572C428.492 92.572 429.945 93.4477 432.259 94.7478C439.029 98.5553 453.177 106.018 459.843 105.881C468.788 105.696 497.941 88.1986 497.941 88.1986L496.47 84.8721L491.312 73.1901C491.312 73.1901 465.005 91.0456 461.39 89.2424C457.775 87.4392 431.648 72.8553 431.648 72.8553L428.492 92.572Z" fill="white"/>
<path d="M431.234 91.2115L432.259 94.7471C439.028 98.5546 453.177 106.017 459.842 105.88C468.788 105.695 497.941 88.1979 497.941 88.1979L496.469 84.8714C491.998 87.6413 467.353 102.68 460.343 102.566C452.628 102.441 431.234 91.2115 431.234 91.2115Z" fill="#F0EAD2"/>
<path d="M359.633 136.986L369.968 142.887L372.415 144.285L386.83 111.271L407.702 95.0431L407.793 91.4824L408.241 73.8439C408.241 73.8439 379.181 92.8013 375.109 101.847L359.633 136.986Z" fill="white"/>
<path d="M369.969 142.887L372.416 144.285L386.831 111.272L407.703 95.0431L407.794 91.4824C405.049 93.5261 384.489 108.909 384.047 110.379C383.679 111.613 374.047 133.607 369.969 142.887Z" fill="#F0EAD2"/>
<path d="M437.311 152.715L421.547 152.175L420.406 152.131L417.686 152.03L416.233 151.975L394.22 151.206L398.777 88.9275C398.777 88.9275 399.58 75.238 414.24 71.3205C414.368 71.2969 414.5 71.2513 414.653 71.2089C415.041 71.1161 415.43 71.0233 415.837 70.9573C416.591 70.7907 417.359 70.6743 418.169 70.5643L423.027 70.7498L427.238 70.907C428.399 71.1262 429.52 71.5507 430.561 72.1647C430.929 72.364 431.287 72.5855 431.634 72.8281L431.651 72.8548C432.01 73.1079 432.367 73.383 432.74 73.6848C436.081 76.5397 439.66 82.218 439.664 93.507C439.639 114.502 437.311 152.715 437.311 152.715Z" fill="white"/>
<path d="M417.5 102.476C417.454 102.788 417.327 103.077 417.135 103.307C416.942 103.538 416.693 103.7 416.419 103.772C416.145 103.844 415.858 103.823 415.594 103.713C415.33 103.602 415.101 103.406 414.937 103.15C414.772 102.894 414.679 102.589 414.669 102.274C414.66 101.959 414.733 101.647 414.882 101.379C415.03 101.111 415.246 100.898 415.502 100.767C415.758 100.636 416.044 100.593 416.322 100.643C416.507 100.677 416.684 100.751 416.843 100.861C417.003 100.971 417.141 101.116 417.25 101.286C417.36 101.456 417.438 101.649 417.481 101.853C417.524 102.058 417.53 102.269 417.5 102.476V102.476Z" fill="#F0EAD2"/>
<path d="M416.816 115.517C416.77 115.828 416.643 116.118 416.451 116.349C416.258 116.58 416.009 116.742 415.735 116.815C415.46 116.887 415.172 116.867 414.908 116.756C414.644 116.645 414.415 116.449 414.25 116.193C414.085 115.936 413.992 115.631 413.982 115.315C413.973 115 414.047 114.688 414.195 114.419C414.344 114.15 414.56 113.937 414.817 113.806C415.074 113.675 415.359 113.633 415.638 113.684C416.011 113.752 416.345 113.983 416.566 114.327C416.786 114.671 416.876 115.099 416.816 115.517V115.517Z" fill="#F0EAD2"/>
<path d="M416.15 130.003C416.105 130.315 415.978 130.604 415.785 130.835C415.593 131.065 415.344 131.227 415.07 131.299C414.796 131.371 414.508 131.35 414.244 131.24C413.981 131.129 413.752 130.934 413.587 130.677C413.423 130.421 413.33 130.116 413.32 129.801C413.31 129.486 413.384 129.174 413.532 128.906C413.68 128.638 413.896 128.425 414.153 128.294C414.409 128.163 414.694 128.12 414.972 128.17C415.346 128.239 415.679 128.47 415.9 128.814C416.121 129.158 416.211 129.586 416.15 130.003V130.003Z" fill="#F0EAD2"/>
<path d="M425.583 94.7715L436.344 95.6315C436.344 95.6315 435.885 106.553 435.632 107.09C435.38 107.628 430.921 109.639 429.631 109.208C428.013 108.326 426.48 107.264 425.054 106.035L425.583 94.7715Z" fill="#F0EAD2"/>
<path d="M415.453 63.2209L418.174 73.7128L428.491 72.2979L426.715 65.7817L415.453 63.2209Z" fill="#FCB0B1"/>
<path d="M426.892 43.5623L431.402 65.9232L418.999 67.5912L414.481 62.9631L410.972 48.6573L426.892 43.5623Z" fill="#FFC5C5"/>
<path d="M411.728 60.1966C411.728 60.1966 410.648 55.8797 412.826 55.2556C415.003 54.6315 416.32 57.2568 416.32 57.2568L413.895 49.711C413.895 49.711 429.492 50.4152 429.057 41.7186C428.622 33.022 423.373 33.5722 421.173 34.3378C420.656 34.5541 420.187 34.8918 419.796 35.328C419.406 35.7643 419.103 36.2891 418.909 36.8671C418.715 37.4452 418.633 38.0631 418.669 38.6795C418.706 39.2958 418.86 39.8963 419.121 40.4405C419.121 40.4405 408.927 40.5034 408.003 43.5595C407.75 44.5211 407.68 45.5315 407.797 46.5253C407.915 47.5192 408.217 48.4743 408.686 49.3289C408.686 49.3289 406.57 49.7047 406.529 53.1711C406.488 56.6375 410.289 59.4263 411.728 60.1966Z" fill="#532C00"/>
<path d="M417.871 58.9134C417.871 58.9134 413.764 51.2544 411.057 55.8809C409.164 59.1178 414.484 62.9631 414.484 62.9631L417.871 58.9134Z" fill="#FFC5C5"/>
<path d="M432.278 56.4089L428.399 57.6068L427.787 49.8031L432.278 56.4089Z" fill="#FFC5C5"/>
<path d="M417.686 152.027L416.233 151.972L422.384 72.7406L423.246 72.4073L417.686 152.027Z" fill="#F0EAD2"/>
<path d="M414.641 71.2207L419.048 79.6721L422.77 72.7236L426.015 80.1846L431.646 72.8556L431.627 72.8415L430.561 72.1718C429.518 71.5561 428.393 71.1315 427.23 70.9142L423.018 70.7569L418.166 70.5699C417.358 70.6736 416.583 70.8025 415.841 70.9503C415.432 71.0352 415.031 71.1248 414.641 71.2207Z" fill="#F0EAD2"/>
<path d="M427.234 70.9157L423.022 70.7585L425.909 78.6298L430.567 72.1733C429.523 71.5572 428.398 71.1326 427.234 70.9157V70.9157Z" fill="white"/>
<path d="M415.842 70.9472L419.01 78.262L423.02 70.7539L418.168 70.5668C417.359 70.6706 416.584 70.7995 415.842 70.9472Z" fill="white"/>
<path d="M423.02 70.7549L420.963 74.6065L422.053 76.3672C420.194 81.6866 416.739 86.1146 412.28 88.8902C408.824 90.9748 404.934 91.9699 401.33 93.707C397.726 95.4442 394.201 98.2125 392.884 102.353L394.429 108.956L401.497 106.513C402.74 102.74 405.835 100.148 408.938 98.1324C412.04 96.117 415.407 94.3798 417.844 91.4244C421.115 87.4581 422.468 81.8348 423.479 76.5543L424.512 74.8109L423.02 70.7549Z" fill="url(#paint11_linear)"/>
<defs>
<linearGradient id="paint0_linear" x1="50.4975" y1="377.293" x2="147.441" y2="66.7114" gradientUnits="userSpaceOnUse">
<stop stop-color="#FFF197" stop-opacity="0"/>
<stop offset="1" stop-color="#FFA600"/>
</linearGradient>
<linearGradient id="paint1_linear" x1="117.115" y1="243.974" x2="188.873" y2="146.548" gradientUnits="userSpaceOnUse">
<stop stop-color="#FFF197"/>
<stop offset="1" stop-color="#FFA600"/>
</linearGradient>
<linearGradient id="paint2_linear" x1="194.053" y1="221.948" x2="228.705" y2="173.214" gradientUnits="userSpaceOnUse">
<stop stop-color="#FFF197"/>
<stop offset="1" stop-color="#FFA600"/>
</linearGradient>
<linearGradient id="paint3_linear" x1="-16.16" y1="-289.333" x2="63.9753" y2="-289.333" gradientUnits="userSpaceOnUse">
<stop stop-color="#DB4B00"/>
<stop offset="1" stop-color="#A23B01"/>
</linearGradient>
<linearGradient id="paint4_linear" x1="-16.19" y1="-214.425" x2="63.9769" y2="-214.425" gradientUnits="userSpaceOnUse">
<stop stop-color="#DB4B00"/>
<stop offset="1" stop-color="#A23B01"/>
</linearGradient>
<linearGradient id="paint5_linear" x1="190.074" y1="-251.847" x2="292.913" y2="-251.847" gradientUnits="userSpaceOnUse">
<stop stop-color="#DB4B00"/>
<stop offset="1" stop-color="#A23B01"/>
</linearGradient>
<linearGradient id="paint6_linear" x1="626.977" y1="369.888" x2="677.333" y2="369.888" gradientUnits="userSpaceOnUse">
<stop stop-color="#547A95"/>
<stop offset="1" stop-color="#29506E"/>
</linearGradient>
<linearGradient id="paint7_linear" x1="-147.271" y1="-61.3089" x2="-161.842" y2="-55.6331" gradientUnits="userSpaceOnUse">
<stop stop-color="#547A95"/>
<stop offset="1" stop-color="#29506E"/>
</linearGradient>
<linearGradient id="paint8_linear" x1="-15.6921" y1="-251.821" x2="66.8597" y2="-251.821" gradientUnits="userSpaceOnUse">
<stop stop-color="#DB4B00"/>
<stop offset="1" stop-color="#A23B01"/>
</linearGradient>
<linearGradient id="paint9_linear" x1="579.578" y1="371.879" x2="562.688" y2="290.263" gradientUnits="userSpaceOnUse">
<stop stop-color="#547A95"/>
<stop offset="1" stop-color="#29506E"/>
</linearGradient>
<linearGradient id="paint10_linear" x1="563.712" y1="160.92" x2="620.541" y2="160.92" gradientUnits="userSpaceOnUse">
<stop stop-color="#DB4B00"/>
<stop offset="1" stop-color="#A23B01"/>
</linearGradient>
<linearGradient id="paint11_linear" x1="562.031" y1="215.957" x2="525.366" y2="264.879" gradientUnits="userSpaceOnUse">
<stop stop-color="#A23B01"/>
<stop offset="1" stop-color="#DB4B00"/>
</linearGradient>
</defs>
</svg>
