<svg width="32" height="32" viewBox="0 0 32 32" fill="none" xmlns="http://www.w3.org/2000/svg">
<path d="M26.6667 14.6667H5.33333C4.53333 14.6667 4 15.2 4 16C4 16.8 4.53333 17.3333 5.33333 17.3333H26.6667C27.4667 17.3333 28 16.8 28 16C28 15.2 27.4667 14.6667 26.6667 14.6667ZM5.33333 10.6667H26.6667C27.4667 10.6667 28 10.1333 28 9.33333C28 8.53333 27.4667 8 26.6667 8H5.33333C4.53333 8 4 8.53333 4 9.33333C4 10.1333 4.53333 10.6667 5.33333 10.6667ZM26.6667 21.3333H5.33333C4.53333 21.3333 4 21.8667 4 22.6667C4 23.4667 4.53333 24 5.33333 24H26.6667C27.4667 24 28 23.4667 28 22.6667C28 21.8667 27.4667 21.3333 26.6667 21.3333Z" fill="black"/>
</svg>
